<svg width="20" height="20" viewBox="0 0 20 20" fill="none" xmlns="http://www.w3.org/2000/svg">
<path d="M10.0002 1.66666C7.70638 1.66666 5.8335 3.53954 5.8335 5.83332C5.8335 8.12711 7.70638 9.99999 10.0002 9.99999C12.2939 9.99999 14.1668 8.12711 14.1668 5.83332C14.1668 3.53954 12.2939 1.66666 10.0002 1.66666ZM10.0002 2.91666C11.6184 2.91666 12.9168 4.21509 12.9168 5.83332C12.9168 7.45156 11.6184 8.74999 10.0002 8.74999C8.38193 8.74999 7.0835 7.45156 7.0835 5.83332C7.0835 4.21509 8.38193 2.91666 10.0002 2.91666ZM14.5835 9.99999C12.0522 9.99999 10.0002 12.0521 10.0002 14.5833C10.0002 17.1146 12.0522 19.1667 14.5835 19.1667C17.1147 19.1667 19.1668 17.1146 19.1668 14.5833C19.1668 12.0521 17.1147 9.99999 14.5835 9.99999ZM5.2085 11.6667C4.17475 11.6667 3.3335 12.5079 3.3335 13.5417V14.0413C3.3335 16.448 6.26183 18.3333 10.0002 18.3333C10.2239 18.3333 10.4443 18.3255 10.6618 18.3122C10.3126 17.9451 10.0138 17.5306 9.778 17.0768C6.56508 17.0076 4.5835 15.4709 4.5835 14.0413V13.5417C4.5835 13.1971 4.86391 12.9167 5.2085 12.9167H9.43132C9.57507 12.4717 9.77666 12.0529 10.0246 11.6667H5.2085ZM17.0835 12.5C17.1901 12.5 17.2966 12.5406 17.3781 12.6221C17.541 12.785 17.541 13.0483 17.3781 13.2113L14.0448 16.5446C13.9635 16.6258 13.8568 16.6667 13.7502 16.6667C13.6435 16.6667 13.5368 16.6258 13.4556 16.5446L11.7889 14.8779C11.626 14.715 11.626 14.4516 11.7889 14.2887C11.9518 14.1258 12.2152 14.1258 12.3781 14.2887L13.7502 15.6608L16.7889 12.6221C16.8704 12.5406 16.9769 12.5 17.0835 12.5Z" fill="#374151"/>
</svg>
