<svg width="32" height="32" viewBox="0 0 32 32" fill="none" xmlns="http://www.w3.org/2000/svg">
<path opacity="0.4" d="M29.3332 15.9997C29.3332 23.3651 23.3638 29.3331 15.9998 29.3331C8.63584 29.3331 2.6665 23.3651 2.6665 15.9997C2.6665 8.63708 8.63584 2.66641 15.9998 2.66641C23.3638 2.66641 29.3332 8.63708 29.3332 15.9997" fill="#EB5757"/>
<path fill-rule="evenodd" clip-rule="evenodd" d="M17.16 16.8409C17.16 17.4836 16.636 18.0076 15.9933 18.0076C15.3507 18.0076 14.8267 17.4836 14.8267 16.8409V10.9476C14.8267 10.3049 15.3507 9.78094 15.9933 9.78094C16.636 9.78094 17.16 10.3049 17.16 10.9476V16.8409ZM14.8333 21.0713C14.8333 20.4287 15.3547 19.9047 15.9933 19.9047C16.6507 19.9047 17.1733 20.4287 17.1733 21.0713C17.1733 21.714 16.6507 22.238 16.0067 22.238C15.36 22.238 14.8333 21.714 14.8333 21.0713Z" fill="#EB5757"/>
</svg>
