<svg width="20" height="22" viewBox="0 0 20 22" fill="none" xmlns="http://www.w3.org/2000/svg">
<path fill-rule="evenodd" clip-rule="evenodd" d="M9.99997 11.25C8.48119 11.25 7.24997 12.4812 7.24997 14C7.24997 15.5188 8.48119 16.75 9.99997 16.75C11.5188 16.75 12.75 15.5188 12.75 14C12.75 12.4812 11.5188 11.25 9.99997 11.25ZM8.74997 14C8.74997 13.3096 9.30962 12.75 9.99997 12.75C10.6903 12.75 11.25 13.3096 11.25 14C11.25 14.6904 10.6903 15.25 9.99997 15.25C9.30962 15.25 8.74997 14.6904 8.74997 14Z" fill="#6B7280"/>
<path fill-rule="evenodd" clip-rule="evenodd" d="M9.99997 0.25C6.82434 0.25 4.24997 2.82436 4.24997 6V6.52281L4.22312 6.53142C2.47261 7.1002 1.10017 8.47263 0.531397 10.2232C0.249523 11.0907 0.249687 12.1319 0.249955 13.8382V14.1618C0.249687 15.8681 0.249523 16.9093 0.531397 17.7768C1.10017 19.5274 2.47261 20.8998 4.22312 21.4686C5.09064 21.7505 6.13185 21.7503 7.83811 21.75H12.1618C13.8681 21.7503 14.9093 21.7505 15.7768 21.4686C17.5273 20.8998 18.8998 19.5274 19.4685 17.7768C19.7504 16.9093 19.7503 15.8681 19.75 14.1619V13.8381C19.7503 12.1319 19.7504 11.0907 19.4685 10.2232C18.8998 8.47263 17.5273 7.1002 15.7768 6.53142L15.75 6.52281V6C15.75 2.82436 13.1756 0.25 9.99997 0.25ZM7.91599 6.25C7.0368 6.24997 6.33508 6.24994 5.74997 6.28306V6C5.74997 3.65279 7.65276 1.75 9.99997 1.75C12.3472 1.75 14.25 3.65279 14.25 6V6.28306C13.6649 6.24994 12.9632 6.24997 12.084 6.25H7.91599ZM5.12457 7.85329C5.72217 7.75262 6.52812 7.75 7.99997 7.75H12C13.4718 7.75 14.2778 7.75262 14.8754 7.85329C15.0406 7.88113 15.1831 7.91571 15.3133 7.95801C16.6072 8.37841 17.6216 9.39282 18.042 10.6867C18.2407 11.2984 18.25 12.0803 18.25 14C18.25 15.9197 18.2407 16.7016 18.042 17.3133C17.6216 18.6072 16.6072 19.6216 15.3133 20.042C14.7016 20.2407 13.9196 20.25 12 20.25H7.99997C6.08032 20.25 5.29836 20.2407 4.68665 20.042C3.39279 19.6216 2.37838 18.6072 1.95798 17.3133C1.75923 16.7016 1.74997 15.9197 1.74997 14C1.74997 12.0803 1.75923 11.2984 1.95798 10.6867C2.37838 9.39282 3.39279 8.37841 4.68665 7.95801C4.81682 7.91571 4.95932 7.88113 5.12457 7.85329Z" fill="#6B7280"/>
</svg>
