<svg width="20" height="20" viewBox="0 0 20 20" fill="none" xmlns="http://www.w3.org/2000/svg">
<path d="M9.9904 1.65771C9.8953 1.65927 9.80181 1.68252 9.71706 1.72567C9.6323 1.76882 9.55851 1.83075 9.5013 1.90674L7.8916 3.51644C7.83162 3.57403 7.78373 3.64301 7.75074 3.71934C7.71775 3.79567 7.70033 3.87781 7.69948 3.96096C7.69863 4.04411 7.71439 4.12659 7.74582 4.20358C7.77725 4.28056 7.82373 4.3505 7.88252 4.4093C7.94132 4.4681 8.01126 4.51458 8.08825 4.54601C8.16523 4.57744 8.24771 4.59319 8.33086 4.59235C8.41401 4.5915 8.49616 4.57407 8.57249 4.54108C8.64882 4.50809 8.7178 4.46021 8.77539 4.40022L9.37516 3.80045V6.04166C9.37399 6.12448 9.38929 6.20671 9.42018 6.28357C9.45106 6.36042 9.49691 6.43037 9.55506 6.48935C9.61322 6.54833 9.68251 6.59517 9.75892 6.62714C9.83533 6.6591 9.91733 6.67556 10.0002 6.67556C10.083 6.67556 10.165 6.6591 10.2414 6.62714C10.3178 6.59517 10.3871 6.54833 10.4453 6.48935C10.5034 6.43037 10.5493 6.36042 10.5801 6.28357C10.611 6.20671 10.6263 6.12448 10.6252 6.04166V3.80045L11.2249 4.40022C11.2825 4.46021 11.3515 4.50809 11.4278 4.54108C11.5042 4.57407 11.5863 4.5915 11.6695 4.59235C11.7526 4.59319 11.8351 4.57744 11.9121 4.54601C11.9891 4.51458 12.059 4.4681 12.1178 4.4093C12.1766 4.3505 12.2231 4.28056 12.2545 4.20358C12.2859 4.12659 12.3017 4.04411 12.3008 3.96096C12.3 3.87781 12.2826 3.79567 12.2496 3.71934C12.2166 3.64301 12.1687 3.57403 12.1087 3.51644L10.4958 1.90348C10.4366 1.82591 10.36 1.76328 10.2723 1.7206C10.1845 1.67792 10.088 1.65638 9.9904 1.65771ZM3.54183 7.5C2.74393 7.5 2.0835 8.16043 2.0835 8.95833V16.0417C2.0835 16.8396 2.74393 17.5 3.54183 17.5H16.4585C17.2564 17.5 17.9168 16.8396 17.9168 16.0417V8.95833C17.9168 8.16043 17.2564 7.5 16.4585 7.5H3.54183ZM4.5835 8.75H15.4168C15.4168 9.44166 15.9752 10 16.6668 10V15C15.9752 15 15.4168 15.5583 15.4168 16.25H4.5835C4.5835 15.5583 4.02516 15 3.3335 15V10C4.02516 10 4.5835 9.44166 4.5835 8.75ZM10.0002 9.58333C9.18419 9.58333 8.49819 9.99337 8.08854 10.5566C7.6789 11.1199 7.50016 11.8134 7.50016 12.5C7.50016 13.1865 7.6789 13.8801 8.08854 14.4434C8.49819 15.0066 9.18419 15.4167 10.0002 15.4167C10.8161 15.4167 11.5021 15.0066 11.9118 14.4434C12.3214 13.8801 12.5002 13.1865 12.5002 12.5C12.5002 11.8134 12.3214 11.1199 11.9118 10.5566C11.5021 9.99337 10.8161 9.58333 10.0002 9.58333ZM10.0002 10.8333C10.4342 10.8333 10.6857 10.9962 10.901 11.2923C11.1164 11.5884 11.2502 12.0407 11.2502 12.5C11.2502 12.9593 11.1164 13.4116 10.901 13.7077C10.6857 14.0038 10.4342 14.1667 10.0002 14.1667C9.56613 14.1667 9.31464 14.0038 9.09928 13.7077C8.88393 13.4116 8.75016 12.9593 8.75016 12.5C8.75016 12.0407 8.88393 11.5884 9.09928 11.2923C9.31464 10.9962 9.56613 10.8333 10.0002 10.8333ZM5.00016 11.6667C4.77915 11.6667 4.56719 11.7545 4.41091 11.9107C4.25463 12.067 4.16683 12.279 4.16683 12.5C4.16683 12.721 4.25463 12.933 4.41091 13.0893C4.56719 13.2455 4.77915 13.3333 5.00016 13.3333C5.22118 13.3333 5.43314 13.2455 5.58942 13.0893C5.7457 12.933 5.8335 12.721 5.8335 12.5C5.8335 12.279 5.7457 12.067 5.58942 11.9107C5.43314 11.7545 5.22118 11.6667 5.00016 11.6667ZM15.0002 11.6667C14.7791 11.6667 14.5672 11.7545 14.4109 11.9107C14.2546 12.067 14.1668 12.279 14.1668 12.5C14.1668 12.721 14.2546 12.933 14.4109 13.0893C14.5672 13.2455 14.7791 13.3333 15.0002 13.3333C15.2212 13.3333 15.4331 13.2455 15.5894 13.0893C15.7457 12.933 15.8335 12.721 15.8335 12.5C15.8335 12.279 15.7457 12.067 15.5894 11.9107C15.4331 11.7545 15.2212 11.6667 15.0002 11.6667Z" fill="#374151"/>
</svg>
