<svg width="20" height="20" viewBox="0 0 20 20" fill="none" xmlns="http://www.w3.org/2000/svg">
<path d="M6.45817 2.08334C5.66027 2.08334 4.99984 2.74377 4.99984 3.54167V5.78695L2.58366 7.22412L2.58285 7.22494C2.01593 7.56232 1.6665 8.17486 1.6665 8.83545V15.2083C1.6665 16.6968 2.88639 17.9167 4.37484 17.9167H15.6248C17.1133 17.9167 18.3332 16.6968 18.3332 15.2083V8.83545C18.3332 8.17486 17.9837 7.56234 17.4168 7.22494L17.416 7.22412L14.9998 5.78695V3.54167C14.9998 2.74377 14.3394 2.08334 13.5415 2.08334H6.45817ZM7.49984 3.33334H12.4998C12.4998 4.025 13.0582 4.58334 13.7498 4.58334V6.1263C13.7496 6.13553 13.7496 6.14475 13.7498 6.15397V9.77214L12.9149 10.1782C12.8971 8.67093 11.5622 7.5 9.99984 7.5C8.43743 7.5 7.10259 8.67093 7.0848 10.1782L6.24984 9.77214V6.23942C6.26086 6.17233 6.26086 6.10388 6.24984 6.03679V4.58334C6.9415 4.58334 7.49984 4.025 7.49984 3.33334ZM9.99984 4.16667C9.77882 4.16667 9.56686 4.25447 9.41058 4.41075C9.2543 4.56703 9.1665 4.77899 9.1665 5C9.1665 5.22102 9.2543 5.43298 9.41058 5.58926C9.56686 5.74554 9.77882 5.83334 9.99984 5.83334C10.2209 5.83334 10.4328 5.74554 10.5891 5.58926C10.7454 5.43298 10.8332 5.22102 10.8332 5C10.8332 4.77899 10.7454 4.56703 10.5891 4.41075C10.4328 4.25447 10.2209 4.16667 9.99984 4.16667ZM4.99984 7.24203V9.16423L3.22249 8.29916L4.99984 7.24203ZM14.9998 7.24203L16.7772 8.29916L14.9998 9.16423V7.24203ZM9.99984 8.75C10.9586 8.75 11.6665 9.42946 11.6665 10.2083C11.6665 10.4517 11.5975 10.6755 11.4753 10.8789L9.99984 11.5967L8.52441 10.8789C8.40215 10.6755 8.33317 10.4517 8.33317 10.2083C8.33317 9.42946 9.04109 8.75 9.99984 8.75ZM2.9165 9.54102L5.26921 10.6852C5.32246 10.7226 5.38122 10.7514 5.44336 10.7707L9.7264 12.854C9.81159 12.8955 9.9051 12.917 9.99984 12.917C10.0946 12.917 10.1881 12.8955 10.2733 12.854L14.5579 10.769C14.6213 10.7499 14.6812 10.7207 14.7354 10.6828L17.0832 9.54102V15.2083C17.0832 16.0216 16.4381 16.6667 15.6248 16.6667H4.37484C3.56162 16.6667 2.9165 16.0216 2.9165 15.2083V9.54102Z" fill="#374151"/>
</svg>
