<svg width="20" height="20" viewBox="0 0 20 20" fill="none" xmlns="http://www.w3.org/2000/svg">
<path d="M8.54183 1.66667C7.58491 1.66667 6.7942 2.40276 6.68799 3.33333H5.2085C4.18037 3.33333 3.3335 4.18021 3.3335 5.20833V16.4583C3.3335 17.4865 4.18037 18.3333 5.2085 18.3333H14.7918C15.82 18.3333 16.6668 17.4865 16.6668 16.4583V5.20833C16.6668 4.18021 15.82 3.33333 14.7918 3.33333H13.3123C13.2061 2.40276 12.4154 1.66667 11.4585 1.66667H8.54183ZM8.54183 2.91667H11.4585C11.8112 2.91667 12.0835 3.18896 12.0835 3.54167C12.0835 3.89438 11.8112 4.16667 11.4585 4.16667H8.54183C8.18912 4.16667 7.91683 3.89438 7.91683 3.54167C7.91683 3.18896 8.18912 2.91667 8.54183 2.91667ZM5.2085 4.58333H6.98747C7.32568 5.08413 7.89796 5.41667 8.54183 5.41667H11.4585C12.1024 5.41667 12.6746 5.08413 13.0129 4.58333H14.7918C15.1445 4.58333 15.4168 4.85563 15.4168 5.20833V16.4583C15.4168 16.811 15.1445 17.0833 14.7918 17.0833H5.2085C4.85579 17.0833 4.5835 16.811 4.5835 16.4583V5.20833C4.5835 4.85563 4.85579 4.58333 5.2085 4.58333ZM13.113 8.32764C12.9506 8.33237 12.7965 8.40008 12.6833 8.51644L8.9585 12.2412L7.31706 10.5998C7.25947 10.5398 7.19049 10.4919 7.11416 10.4589C7.03783 10.4259 6.95568 10.4085 6.87253 10.4077C6.78938 10.4068 6.7069 10.4226 6.62991 10.454C6.55293 10.4854 6.48299 10.5319 6.42419 10.5907C6.36539 10.6495 6.31892 10.7194 6.28749 10.7964C6.25606 10.8734 6.2403 10.9559 6.24115 11.039C6.24199 11.1222 6.25942 11.2043 6.29241 11.2807C6.3254 11.357 6.37329 11.426 6.43327 11.4836L8.5166 13.5669C8.63382 13.6841 8.79276 13.7499 8.9585 13.7499C9.12423 13.7499 9.28318 13.6841 9.40039 13.5669L13.5671 9.40023C13.6572 9.31241 13.7188 9.19942 13.7437 9.07605C13.7686 8.95267 13.7556 8.82465 13.7066 8.70875C13.6575 8.59285 13.5746 8.49446 13.4687 8.42646C13.3627 8.35846 13.2388 8.32401 13.113 8.32764Z" fill="#374151"/>
</svg>
