<svg width="20" height="20" viewBox="0 0 20 20" fill="none" xmlns="http://www.w3.org/2000/svg">
<path d="M3.54183 2.5C2.74393 2.5 2.0835 3.16044 2.0835 3.95833V11.0417C2.0835 11.8396 2.74393 12.5 3.54183 12.5H16.4585C17.2564 12.5 17.9168 11.8396 17.9168 11.0417V3.95833C17.9168 3.16044 17.2564 2.5 16.4585 2.5H3.54183ZM4.5835 3.75H15.4168C15.4168 4.44167 15.9752 5 16.6668 5V10C15.9752 10 15.4168 10.5583 15.4168 11.25H4.5835C4.5835 10.5583 4.02516 10 3.3335 10V5C4.02516 5 4.5835 4.44167 4.5835 3.75ZM10.0002 4.58333C9.18419 4.58333 8.49819 4.99338 8.08854 5.55664C7.6789 6.1199 7.50016 6.81345 7.50016 7.5C7.50016 8.18655 7.6789 8.8801 8.08854 9.44336C8.49819 10.0066 9.18419 10.4167 10.0002 10.4167C10.8161 10.4167 11.5021 10.0066 11.9118 9.44336C12.3214 8.8801 12.5002 8.18655 12.5002 7.5C12.5002 6.81345 12.3214 6.1199 11.9118 5.55664C11.5021 4.99338 10.8161 4.58333 10.0002 4.58333ZM10.0002 5.83333C10.4342 5.83333 10.6857 5.99621 10.901 6.29232C11.1164 6.58843 11.2502 7.04072 11.2502 7.5C11.2502 7.95928 11.1164 8.41157 10.901 8.70768C10.6857 9.00379 10.4342 9.16667 10.0002 9.16667C9.56613 9.16667 9.31464 9.00379 9.09928 8.70768C8.88393 8.41157 8.75016 7.95928 8.75016 7.5C8.75016 7.04072 8.88393 6.58843 9.09928 6.29232C9.31464 5.99621 9.56613 5.83333 10.0002 5.83333ZM5.00016 6.66667C4.77915 6.66667 4.56719 6.75446 4.41091 6.91074C4.25463 7.06702 4.16683 7.27899 4.16683 7.5C4.16683 7.72101 4.25463 7.93297 4.41091 8.08926C4.56719 8.24554 4.77915 8.33333 5.00016 8.33333C5.22118 8.33333 5.43314 8.24554 5.58942 8.08926C5.7457 7.93297 5.8335 7.72101 5.8335 7.5C5.8335 7.27899 5.7457 7.06702 5.58942 6.91074C5.43314 6.75446 5.22118 6.66667 5.00016 6.66667ZM15.0002 6.66667C14.7791 6.66667 14.5672 6.75446 14.4109 6.91074C14.2546 7.06702 14.1668 7.27899 14.1668 7.5C14.1668 7.72101 14.2546 7.93297 14.4109 8.08926C14.5672 8.24554 14.7791 8.33333 15.0002 8.33333C15.2212 8.33333 15.4331 8.24554 15.5894 8.08926C15.7457 7.93297 15.8335 7.72101 15.8335 7.5C15.8335 7.27899 15.7457 7.06702 15.5894 6.91074C15.4331 6.75446 15.2212 6.66667 15.0002 6.66667ZM9.9904 13.3244C9.82478 13.327 9.66696 13.3952 9.5516 13.5141C9.43625 13.6329 9.37279 13.7927 9.37516 13.9583V16.1995L8.77539 15.5998C8.7178 15.5398 8.64882 15.4919 8.57249 15.4589C8.49616 15.4259 8.41401 15.4085 8.33086 15.4077C8.24771 15.4068 8.16523 15.4226 8.08825 15.454C8.01126 15.4854 7.94132 15.5319 7.88252 15.5907C7.82373 15.6495 7.77725 15.7194 7.74582 15.7964C7.71439 15.8734 7.69863 15.9559 7.69948 16.039C7.70033 16.1222 7.71775 16.2043 7.75074 16.2807C7.78373 16.357 7.83162 16.426 7.8916 16.4836L9.50456 18.0965C9.56313 18.1729 9.63855 18.2347 9.72494 18.2771C9.81133 18.3196 9.90635 18.3415 10.0026 18.3412C10.0988 18.3409 10.1937 18.3183 10.2798 18.2753C10.3659 18.2323 10.441 18.17 10.499 18.0933L12.1087 16.4836C12.1687 16.426 12.2166 16.357 12.2496 16.2807C12.2826 16.2043 12.3 16.1222 12.3008 16.039C12.3017 15.9559 12.2859 15.8734 12.2545 15.7964C12.2231 15.7194 12.1766 15.6495 12.1178 15.5907C12.059 15.5319 11.9891 15.4854 11.9121 15.454C11.8351 15.4226 11.7526 15.4068 11.6695 15.4077C11.5863 15.4085 11.5042 15.4259 11.4278 15.4589C11.3515 15.4919 11.2825 15.5398 11.2249 15.5998L10.6252 16.1995V13.9583C10.6264 13.8747 10.6108 13.7916 10.5793 13.7141C10.5478 13.6366 10.5011 13.5662 10.4419 13.5071C10.3827 13.448 10.3122 13.4013 10.2347 13.37C10.1571 13.3386 10.074 13.3231 9.9904 13.3244Z" fill="#374151"/>
</svg>
