<svg width="32" height="32" viewBox="0 0 32 32" fill="none" xmlns="http://www.w3.org/2000/svg">
<path opacity="0.4" d="M21.787 2.66641H10.227C5.70699 2.66641 2.66699 5.83975 2.66699 10.5597V21.4531C2.66699 26.1597 5.70699 29.3331 10.227 29.3331H21.787C26.307 29.3331 29.3337 26.1597 29.3337 21.4531V10.5597C29.3337 5.83975 26.307 2.66641 21.787 2.66641" fill="#419681"/>
<path d="M14.4178 20.3305C14.1191 20.3305 13.8204 20.2172 13.5924 19.9892L10.4284 16.8252C9.97243 16.3692 9.97243 15.6305 10.4284 15.1759C10.8844 14.7199 11.6218 14.7185 12.0778 15.1745L14.4178 17.5145L19.9218 12.0105C20.3778 11.5545 21.1151 11.5545 21.5711 12.0105C22.0271 12.4665 22.0271 13.2052 21.5711 13.6612L15.2431 19.9892C15.0151 20.2172 14.7164 20.3305 14.4178 20.3305" fill="#419681"/>
</svg>
